<?xml version="1.0" encoding="UTF-8" standalone="no"?>
<!-- Created with Inkscape (http://www.inkscape.org/) -->

<svg
   xmlns:dc="http://purl.org/dc/elements/1.1/"
   xmlns:cc="http://creativecommons.org/ns#"
   xmlns:rdf="http://www.w3.org/1999/02/22-rdf-syntax-ns#"
   xmlns:svg="http://www.w3.org/2000/svg"
   xmlns="http://www.w3.org/2000/svg"
   xmlns:sodipodi="http://sodipodi.sourceforge.net/DTD/sodipodi-0.dtd"
   xmlns:inkscape="http://www.inkscape.org/namespaces/inkscape"
   id="svg5983"
   version="1.1"
   inkscape:version="0.91 r13725"
   width="625"
   height="625"
   viewBox="0 0 625 625"
   sodipodi:docname="SWAG.svg">
  <metadata
     id="metadata5989">
    <rdf:RDF>
      <cc:Work
         rdf:about="">
        <dc:format>image/svg+xml</dc:format>
        <dc:type
           rdf:resource="http://purl.org/dc/dcmitype/StillImage" />
      </cc:Work>
    </rdf:RDF>
  </metadata>
  <defs
     id="defs5987" />
  <sodipodi:namedview
     pagecolor="#ffffff"
     bordercolor="#666666"
     borderopacity="1"
     objecttolerance="10"
     gridtolerance="10"
     guidetolerance="10"
     inkscape:pageopacity="0"
     inkscape:pageshadow="2"
     inkscape:window-width="1276"
     inkscape:window-height="985"
     id="namedview5985"
     showgrid="false"
     inkscape:zoom="1.0680141"
     inkscape:cx="211.29331"
     inkscape:cy="312.2147"
     inkscape:window-x="0"
     inkscape:window-y="18"
     inkscape:window-maximized="0"
     inkscape:current-layer="svg5983" />
  <path
     style="fill:#009bff;fill-opacity:1"
     d="M 286.875,623.73531 C 213.21899,617.26035 143.59035,584.92943 91.830468,533.16954 42.812579,484.15165 11.43766,419.51325 2.3148221,348.75 c -1.97217275,-15.29758 -1.97217275,-57.20243 0,-72.5 C 9.9483243,217.03911 33.056781,162.25214 69.800821,116.25 119.34892,54.217665 194.23805,12.887849 276.25,2.3148221 c 15.29757,-1.97217275 57.20242,-1.97217275 72.5,0 59.21089,7.6335022 113.99786,30.7419589 160,67.4859989 62.03234,49.548099 103.36215,124.437229 113.93518,206.449179 1.97217,15.29757 1.97217,57.20242 0,72.5 -7.63351,59.21089 -30.74196,113.99786 -67.486,160 C 505.97655,570.37486 429.85714,612.55488 350,622.45695 c -15.22899,1.88835 -48.51739,2.56249 -63.125,1.27836 z M 340,614.98726 c 6.53125,-0.67068 15.95312,-1.86311 20.9375,-2.64984 L 370,610.907 l 0,-59.56587 c 0,-64.46808 -0.21536,-66.94896 -6.96843,-80.27549 -19.33592,-38.15762 -82.1686,-37.5602 -101.52798,0.96532 C 255.29998,484.37629 255,488.05476 255,551.78371 l 0,59.16067 9.6875,1.50545 c 24.13691,3.75091 53.77199,4.74938 75.3125,2.53743 z m 7.06874,-53.52319 c -2.68881,-2.9711 -2.6193,-5.57836 0.21718,-8.14533 2.9711,-2.68882 5.57837,-2.6193 8.14534,0.21718 2.68881,2.9711 2.6193,5.57837 -0.21718,8.14534 -2.9711,2.68881 -5.57837,2.6193 -8.14534,-0.21719 z M 268.75,498.18652 c 0,-13.14057 6.21123,-27.96968 15.26066,-36.43438 9.05615,-8.47097 15.68152,-11.03789 28.48934,-11.03789 12.80782,0 19.43319,2.56692 28.48934,11.03789 9.11007,8.52141 15.26066,23.52538 15.26066,37.22743 l 0,3.52043 -43.75,0 -43.75,0 0,-4.31348 z m 80.66799,-6.62402 C 346.47779,471.40087 330.63808,456.25 312.5,456.25 c -9.71673,0 -17.35149,3.40651 -25.00617,11.15737 -7.07011,7.15892 -10.33812,13.90689 -12.00093,24.78013 l -0.81243,5.3125 37.80171,0 37.80168,0 -0.86587,-5.9375 z m -104.12505,55 c 0.43631,-61.48253 0.47433,-62.27741 3.35415,-70.11905 6.39981,-17.4265 20.02755,-31.89498 36.10315,-38.33048 37.90423,-15.17411 79.46328,2.55653 91.75342,39.14541 2.73705,8.14843 2.82099,9.97227 3.21848,69.93658 l 0.40813,61.56998 3.37237,-0.79846 c 31.82053,-7.53397 68.83163,-23.81118 97.47117,-42.86714 l 14.11548,-9.39205 -0.40073,-110.04115 c -0.30432,-83.57113 -0.77489,-111.14938 -1.95621,-114.64829 -2.08608,-6.17867 -7.6976,-10.64496 -14.92579,-11.87965 -7.74009,-1.32212 -197.87304,-1.32212 -205.61312,0 -7.29792,1.2466 -12.91393,5.76509 -14.76514,11.87965 -0.76718,2.53393 -1.70155,13.46653 -2.0764,24.29465 L 254.67035,375 l -4.83518,0 -4.83517,0 0,-45.625 0,-45.625 -57.48896,0 -57.48897,0 -0.32353,135.76981 -0.32354,135.76983 14.375,9.60605 c 15.73821,10.51701 40.53129,23.53178 58.14989,30.52497 9.32698,3.70208 39.00852,13.06069 42.08842,13.27053 0.47483,0.0324 1.06191,-27.92556 1.30463,-62.12869 z M 380,391.25 l 0,-33.75 33.75,0 33.75,0 0,33.75 0,33.75 -33.75,0 -33.75,0 0,-33.75 z m 61.875,0 0,-28.125 -28.125,0 -28.125,0 -0.33817,26.84409 c -0.186,14.76425 -0.0589,27.57192 0.28247,28.4615 0.4875,1.2704 6.5941,1.54521 28.46317,1.28091 l 27.84253,-0.3365 0,-28.125 z M 120,432.5 l 0,-115 -55.803693,0 -55.8036929,0 0.8552142,12.8125 c 2.7995557,41.9419 12.3435017,77.81465 30.6788937,115.3125 16.690492,34.13385 35.755563,60.26121 63.249568,86.67917 8.69813,8.3577 16.04179,15.19583 16.31924,15.19583 0.27746,0 0.50447,-51.75 0.50447,-115 z m 410.72954,91.05536 c 22.59109,-23.23935 39.35903,-47.28502 54.34373,-77.93036 18.33541,-37.49785 27.87934,-73.3706 30.6789,-115.3125 l 0.85522,-12.8125 -60.37243,0 c -59.29452,0 -60.33395,0.0425 -58.21693,2.3818 1.18552,1.30999 3.08561,5.10686 4.22243,8.4375 1.84581,5.40785 2.11026,17.46374 2.47198,112.69099 l 0.40504,106.6353 7.12876,-6.20494 c 3.92082,-3.41271 12.2383,-11.4611 18.4833,-17.88529 z M 120,290.625 l 0,-16.875 51.5625,0.005 c 28.35937,0.002 58.73437,0.37084 67.5,0.8179 l 15.9375,0.81282 0,16.0571 0,16.0571 179.06054,0 179.06054,0 L 463.75,158.125 C 381.59591,75.96875 313.53341,8.75 312.5,8.75 c -1.03341,0 -69.09591,67.21875 -151.25,149.375 L 11.878923,307.5 l 54.060538,0 54.060539,0 0,-16.875 z M 295.88644,9.235395 C 295.21799,8.6069038 270.43641,11.566007 257.98043,13.761654 197.7725,24.37464 138.87131,55.708264 95.515064,100.18823 71.714315,124.60586 55.213946,148.11099 39.926722,179.375 22.333837,215.35435 13.814988,246.29902 9.4799129,289.97286 L 8.8001924,296.82074 152.47402,153.15096 C 231.49464,74.132598 296.03023,9.3705895 295.88644,9.235395 Z M 614.849,283.75 C 608.05576,214.29215 578.26564,150.23325 529.48494,100.18823 505.07196,75.142522 478.29833,55.903056 445.625,39.926722 409.64565,22.333837 378.70097,13.814988 335.02714,9.4799129 L 328.17926,8.8001924 471.84904,152.47402 c 79.01836,79.02062 143.78037,143.55621 143.91556,143.41242 0.1352,-0.14379 -0.27682,-5.60519 -0.9156,-12.13644 z"
     id="path6535"
     inkscape:connector-curvature="0" />
  <path
     style="fill:#009bff;fill-opacity:0"
     d="M 286.875,623.73531 C 213.21899,617.26035 143.59035,584.92943 91.830468,533.16954 42.812579,484.15165 11.43766,419.51325 2.3148221,348.75 c -1.97217275,-15.29758 -1.97217275,-57.20243 0,-72.5 C 9.9483243,217.03911 33.056781,162.25214 69.800821,116.25 119.34892,54.217665 194.23805,12.887849 276.25,2.3148221 c 15.29757,-1.97217275 57.20242,-1.97217275 72.5,0 59.21089,7.6335022 113.99786,30.7419589 160,67.4859989 62.03234,49.548099 103.36215,124.437229 113.93518,206.449179 1.97217,15.29757 1.97217,57.20242 0,72.5 -7.63351,59.21089 -30.74196,113.99786 -67.486,160 C 505.97655,570.37486 429.85714,612.55488 350,622.45695 c -15.22899,1.88835 -48.51739,2.56249 -63.125,1.27836 z M 340,614.98726 c 6.53125,-0.67068 15.95312,-1.86311 20.9375,-2.64984 L 370,610.907 l 0,-59.56587 c 0,-64.46808 -0.21536,-66.94896 -6.96843,-80.27549 -19.33592,-38.15762 -82.1686,-37.5602 -101.52798,0.96532 C 255.29998,484.37629 255,488.05476 255,551.78371 l 0,59.16067 9.6875,1.50545 c 24.13691,3.75091 53.77199,4.74938 75.3125,2.53743 z m 7.06874,-53.52319 c -2.68881,-2.9711 -2.6193,-5.57836 0.21718,-8.14533 2.9711,-2.68882 5.57837,-2.6193 8.14534,0.21718 2.68881,2.9711 2.6193,5.57837 -0.21718,8.14534 -2.9711,2.68881 -5.57837,2.6193 -8.14534,-0.21719 z M 268.75,498.18652 c 0,-13.14057 6.21123,-27.96968 15.26066,-36.43438 9.05615,-8.47097 15.68152,-11.03789 28.48934,-11.03789 12.80782,0 19.43319,2.56692 28.48934,11.03789 9.11007,8.52141 15.26066,23.52538 15.26066,37.22743 l 0,3.52043 -43.75,0 -43.75,0 0,-4.31348 z m 80.66799,-6.62402 C 346.47779,471.40087 330.63808,456.25 312.5,456.25 c -9.71673,0 -17.35149,3.40651 -25.00617,11.15737 -7.07011,7.15892 -10.33812,13.90689 -12.00093,24.78013 l -0.81243,5.3125 37.80171,0 37.80168,0 -0.86587,-5.9375 z m -104.12505,55 c 0.43631,-61.48253 0.47433,-62.27741 3.35415,-70.11905 6.39981,-17.4265 20.02755,-31.89498 36.10315,-38.33048 37.90423,-15.17411 79.46328,2.55653 91.75342,39.14541 2.73705,8.14843 2.82099,9.97227 3.21848,69.93658 l 0.40813,61.56998 3.37237,-0.79846 c 31.82053,-7.53397 68.83163,-23.81118 97.47117,-42.86714 l 14.11548,-9.39205 -0.40073,-110.04115 c -0.30432,-83.57113 -0.77489,-111.14938 -1.95621,-114.64829 -2.08608,-6.17867 -7.6976,-10.64496 -14.92579,-11.87965 -7.74009,-1.32212 -197.87304,-1.32212 -205.61312,0 -7.29792,1.2466 -12.91393,5.76509 -14.76514,11.87965 -0.76718,2.53393 -1.70155,13.46653 -2.0764,24.29465 L 254.67035,375 l -4.83518,0 -4.83517,0 0,-45.625 0,-45.625 -57.48896,0 -57.48897,0 -0.32353,135.76981 -0.32354,135.76983 14.375,9.60605 c 15.73821,10.51701 40.53129,23.53178 58.14989,30.52497 9.32698,3.70208 39.00852,13.06069 42.08842,13.27053 0.47483,0.0324 1.06191,-27.92556 1.30463,-62.12869 z M 380,391.25 l 0,-33.75 33.75,0 33.75,0 0,33.75 0,33.75 -33.75,0 -33.75,0 0,-33.75 z m 61.875,0 0,-28.125 -28.125,0 -28.125,0 -0.33817,26.84409 c -0.186,14.76425 -0.0589,27.57192 0.28247,28.4615 0.4875,1.2704 6.5941,1.54521 28.46317,1.28091 l 27.84253,-0.3365 0,-28.125 z M 120,432.5 l 0,-115 -55.803693,0 -55.8036929,0 0.8552142,12.8125 c 2.7995557,41.9419 12.3435017,77.81465 30.6788937,115.3125 16.690492,34.13385 35.755563,60.26121 63.249568,86.67917 8.69813,8.3577 16.04179,15.19583 16.31924,15.19583 0.27746,0 0.50447,-51.75 0.50447,-115 z m 410.72954,91.05536 c 22.59109,-23.23935 39.35903,-47.28502 54.34373,-77.93036 18.33541,-37.49785 27.87934,-73.3706 30.6789,-115.3125 l 0.85522,-12.8125 -60.37243,0 c -59.29452,0 -60.33395,0.0425 -58.21693,2.3818 1.18552,1.30999 3.08561,5.10686 4.22243,8.4375 1.84581,5.40785 2.11026,17.46374 2.47198,112.69099 l 0.40504,106.6353 7.12876,-6.20494 c 3.92082,-3.41271 12.2383,-11.4611 18.4833,-17.88529 z M 120,290.625 l 0,-16.875 51.5625,0.005 c 28.35937,0.002 58.73437,0.37084 67.5,0.8179 l 15.9375,0.81282 0,16.0571 0,16.0571 179.06054,0 179.06054,0 L 463.75,158.125 C 381.59591,75.96875 313.53341,8.75 312.5,8.75 c -1.03341,0 -69.09591,67.21875 -151.25,149.375 L 11.878923,307.5 l 54.060538,0 54.060539,0 0,-16.875 z M 295.88644,9.235395 C 295.21799,8.6069038 270.43641,11.566007 257.98043,13.761654 197.7725,24.37464 138.87131,55.708264 95.515064,100.18823 71.714315,124.60586 55.213946,148.11099 39.926722,179.375 22.333837,215.35435 13.814988,246.29902 9.4799129,289.97286 L 8.8001924,296.82074 152.47402,153.15096 C 231.49464,74.132598 296.03023,9.3705895 295.88644,9.235395 Z M 614.849,283.75 C 608.05576,214.29215 578.26564,150.23325 529.48494,100.18823 505.07196,75.142522 478.29833,55.903056 445.625,39.926722 409.64565,22.333837 378.70097,13.814988 335.02714,9.4799129 L 328.17926,8.8001924 471.84904,152.47402 c 79.01836,79.02062 143.78037,143.55621 143.91556,143.41242 0.1352,-0.14379 -0.27682,-5.60519 -0.9156,-12.13644 z"
     id="path5993"
     inkscape:connector-curvature="0" />
</svg>
